<svg xmlns="http://www.w3.org/2000/svg" viewBox="0 0 351.62 351.64"><defs><style>.cls-1{fill:#7d3bec;}</style></defs><g id="Layer_2" data-name="Layer 2"><g id="Layer_1-2" data-name="Layer 1"><path class="cls-1" d="M347.45,293.32l-69.23-69.23a14.69,14.69,0,0,0-20.16,0L251.15,231l-15.34-15.35A132.56,132.56,0,0,0,132.54,0,132.55,132.55,0,0,0,38.82,226.27a132.53,132.53,0,0,0,176.83,9.54L231,251.16l-6.92,6.92a14.24,14.24,0,0,0,0,20.15l69.23,69.23a14.23,14.23,0,0,0,20.15,0l34-34A14.26,14.26,0,0,0,347.45,293.32ZM132.54,236.59A104,104,0,0,1,59,59a104,104,0,1,1,73.56,177.6Zm170.85,80.63-49.07-49.06,13.82-13.83,49.07,49.06Z"/></g></g></svg>