<svg id="Layer_1" data-name="Layer 1" xmlns="http://www.w3.org/2000/svg" viewBox="0 0 354.72 354.72"><defs><style>.cls-1{fill:#7d3bec;}.cls-2{fill:#1e40af;}</style></defs><path class="cls-1" d="M349,294.86l-69.23-69.22a14.67,14.67,0,0,0-20.16,0l-6.9,6.91L237.36,217.2a132.55,132.55,0,0,0-197-176.82,132.55,132.55,0,0,0,93.72,226.27,131.55,131.55,0,0,0,83.11-29.29l15.35,15.34-6.92,6.92a14.25,14.25,0,0,0,0,20.16L294.86,349A14.24,14.24,0,0,0,315,349l34-34A14.25,14.25,0,0,0,349,294.86ZM134.09,238.14a104,104,0,1,1,73.57-30.48A103.37,103.37,0,0,1,134.09,238.14Zm170.85,80.63L255.87,269.7l13.82-13.83,49.07,49.07Z"/><path class="cls-2" d="M134.09,53A80.55,80.55,0,0,0,76.75,76.75,9.5,9.5,0,1,0,90.19,90.19a62.08,62.08,0,0,1,87.81,0,9.5,9.5,0,0,0,13.44-13.44A80.57,80.57,0,0,0,134.09,53Z"/><path class="cls-2" d="M206.36,99A9.94,9.94,0,1,0,216.3,109,9.92,9.92,0,0,0,206.36,99Z"/></svg>